# xmcd
#
# Track frame offsets:
#	150
#	18722
#	32110
#	45725
#	56272
#	75725
#	87675
#	107700
#	153435
#	171950
#
# Disc length: 2451 seconds
#
# Revision: 1
# Processed by: cddbd v1.5.1PL0 Copyright (c) Steve Scherf et al.
# Submitted via: audiograbber 1.81.02
#
DISCID=7d09910a
DTITLE=Various Artist - Blues Disk 2
DYEAR=2003
DGENRE=Blues
TTITLE0=Bobby Bland - Sormy Monday Blues
TTITLE1=Buddy Guy - Stone Crazy
TTITLE2=Koko Taylor - Wang Dang Doodle
TTITLE3=Etta James - Tell Mama
TTITLE4=Tha Allman Brothers Band - Statesboro Blues
TTITLE5=Little Milton - Grits Ain't Groceries
TTITLE6=The Blues Project - I Can't Keep From Crying Sometimes
TTITLE7=John Lee Hooker - Never Get Out Of These Blues Alive
TTITLE8=Robert Cray - Smokin' Gun
TTITLE9=B.B. King - Every Day I Have The Blues
EXTD=
EXTT0=
EXTT1=
EXTT2=
EXTT3=
EXTT4=
EXTT5=
EXTT6=
EXTT7=
EXTT8=
EXTT9=
PLAYORDER=
